<?xml version="1.0" encoding="UTF-8" standalone="no"?>
<svg xmlns:dc="http://purl.org/dc/elements/1.1/" xmlns:cc="http://creativecommons.org/ns#" xmlns:rdf="http://www.w3.org/1999/02/22-rdf-syntax-ns#" xmlns:svg="http://www.w3.org/2000/svg" xmlns="http://www.w3.org/2000/svg" xmlns:xlink="http://www.w3.org/1999/xlink" xmlns:sodipodi="http://sodipodi.sourceforge.net/DTD/sodipodi-0.dtd" xmlns:inkscape="http://www.inkscape.org/namespaces/inkscape" width="1400" height="360" viewBox="0 0 370.41666 95.250003" version="1.1" id="svg902" inkscape:version="1.0.1 (3bc2e813f5, 2020-09-07)" sodipodi:docname="logo green fact 2.svg">
  <defs id="defs896">
    <rect x="107.34524" y="61.232143" width="232.83333" height="105.83333" id="rect1949"/>
    <rect x="337.91071" y="92.22619" width="232.07738" height="44.60119" id="rect1943"/>
    <rect x="104.32143" y="3.7797619" width="236.6131" height="48.380952" id="rect1929"/>
    <radialGradient inkscape:collect="always" xlink:href="#linearGradient5565" id="radialGradient5597" cx="109.5" cy="85.003426" fx="109.5" fy="85.003426" r="16.499998" gradientTransform="matrix(0.62011718,0,0,0.63903745,13.229164,6.3292121)" gradientUnits="userSpaceOnUse"/>
    <linearGradient inkscape:collect="always" id="linearGradient5565">
      <stop style="stop-color:#77388e;stop-opacity:1;" offset="0" id="stop5561"/>
      <stop style="stop-color:#77388e;stop-opacity:0;" offset="1" id="stop5563"/>
    </linearGradient>
    <radialGradient inkscape:collect="always" xlink:href="#linearGradient5565" id="radialGradient5599" cx="10.000002" cy="85.003426" fx="10.000002" fy="85.003426" r="8" gradientTransform="matrix(0.62011718,0,0,1.3180146,13.229164,-51.386176)" gradientUnits="userSpaceOnUse"/>
    <radialGradient inkscape:collect="always" xlink:href="#linearGradient5565" id="radialGradient5601" cx="34.996574" cy="100" fx="34.996574" fy="100" r="13.003426" gradientTransform="matrix(0.62011718,0,0,0.76302001,13.229164,-6.3527869)" gradientUnits="userSpaceOnUse"/>
    <radialGradient inkscape:collect="always" xlink:href="#linearGradient5565" id="radialGradient5603" cx="29.996574" cy="109" fx="29.996574" fy="109" r="30.003426" gradientTransform="matrix(0.62011718,0,0,0.39269603,13.229164,32.726405)" gradientUnits="userSpaceOnUse"/>
    <radialGradient inkscape:collect="always" xlink:href="#linearGradient5565" id="radialGradient5605" cx="93.003426" cy="100" fx="93.003426" fy="100" r="13.003429" gradientTransform="matrix(0.62011718,0,0,0.76301991,13.229164,-6.3527719)" gradientUnits="userSpaceOnUse"/>
    <radialGradient inkscape:collect="always" xlink:href="#linearGradient5565" id="radialGradient5607" cx="98.003433" cy="109.00031" fx="98.003433" fy="109.00031" r="30.003431" gradientTransform="matrix(0.62011718,0,0,0.39268939,13.229164,32.727201)" gradientUnits="userSpaceOnUse"/>
    <radialGradient inkscape:collect="always" xlink:href="#linearGradient5565" id="radialGradient5609" cx="103.9904" cy="42" fx="103.9904" fy="42" r="21.990402" gradientTransform="matrix(0.62011718,0,0,0.45119115,13.229164,15.032393)" gradientUnits="userSpaceOnUse"/>
    <radialGradient inkscape:collect="always" xlink:href="#linearGradient5565" id="radialGradient5611" cx="20.500002" cy="41.996574" fx="20.500002" fy="41.996574" r="18.5" gradientTransform="matrix(0.62011718,0,0,0.53643244,13.229164,11.451972)" gradientUnits="userSpaceOnUse"/>
    <radialGradient inkscape:collect="always" xlink:href="#linearGradient5565" id="radialGradient5613" cx="34.996574" cy="24" fx="34.996574" fy="24" r="13.003426" gradientTransform="matrix(0.62011718,0,0,0.57226504,13.229164,9.0859511)" gradientUnits="userSpaceOnUse"/>
    <radialGradient inkscape:collect="always" xlink:href="#linearGradient5565" id="radialGradient5615" cx="29.996574" cy="16.000002" fx="29.996574" fy="16.000002" r="30.003426" gradientTransform="matrix(0.62011718,0,0,0.33069135,13.229164,12.568314)" gradientUnits="userSpaceOnUse"/>
    <radialGradient inkscape:collect="always" xlink:href="#linearGradient5565" id="radialGradient5617" cx="93.003426" cy="24" fx="93.003426" fy="24" r="13.003429" gradientTransform="matrix(0.62011718,0,0,0.57226493,13.229164,9.0859541)" gradientUnits="userSpaceOnUse"/>
    <radialGradient inkscape:collect="always" xlink:href="#linearGradient5565" id="radialGradient5619" cx="98.003433" cy="16" fx="98.003433" fy="16" r="30.003431" gradientTransform="matrix(0.62011718,0,0,0.33069133,13.229164,12.568314)" gradientUnits="userSpaceOnUse"/>
    <radialGradient inkscape:collect="always" xlink:href="#linearGradient5565" id="radialGradient5621" cx="85" cy="42" fx="85" fy="42" r="13" gradientTransform="matrix(0.62011718,0,0,0.09540264,13.229164,29.975511)" gradientUnits="userSpaceOnUse"/>
    <radialGradient inkscape:collect="always" xlink:href="#linearGradient5565" id="radialGradient5623" cx="52.993137" cy="51.000156" fx="52.993137" fy="51.000156" r="22.993135" gradientTransform="matrix(0.62011718,0,0,0.29667054,13.229164,24.433329)" gradientUnits="userSpaceOnUse"/>
    <radialGradient inkscape:collect="always" xlink:href="#linearGradient5565" id="radialGradient5625" cx="55.5" cy="68.997688" fx="55.5" fy="68.997688" r="33.5" gradientTransform="matrix(0.62011718,0,0,0.31473825,13.229164,29.00794)" gradientUnits="userSpaceOnUse"/>
    <linearGradient inkscape:collect="always" xlink:href="#linearGradient5295" id="linearGradient5297" x1="93" y1="85.003426" x2="126" y2="85.003426" gradientUnits="userSpaceOnUse" gradientTransform="matrix(0.62011718,0,0,0.62011718,13.229164,7.9375001)"/>
    <linearGradient inkscape:collect="always" id="linearGradient5295">
      <stop style="stop-color:#318fbe;stop-opacity:1;" offset="0" id="stop5291"/>
      <stop style="stop-color:#318fbe;stop-opacity:0;" offset="1" id="stop5293"/>
    </linearGradient>
    <linearGradient inkscape:collect="always" xlink:href="#linearGradient5295" id="linearGradient5299" x1="2" y1="85.003426" x2="18" y2="85.003426" gradientUnits="userSpaceOnUse" gradientTransform="matrix(0.62011718,0,0,0.62011718,13.229164,7.9375001)"/>
    <linearGradient inkscape:collect="always" xlink:href="#linearGradient5295" id="linearGradient5301" x1="21.993147" y1="100" x2="48" y2="100" gradientUnits="userSpaceOnUse" gradientTransform="matrix(0.62011718,0,0,0.62011718,13.229164,7.9375001)"/>
    <linearGradient inkscape:collect="always" xlink:href="#linearGradient5295" id="linearGradient5303" x1="-0.0068542496" y1="109" x2="60" y2="109" gradientUnits="userSpaceOnUse" gradientTransform="matrix(0.62011718,0,0,0.62011718,13.229164,7.9375001)"/>
    <linearGradient inkscape:collect="always" xlink:href="#linearGradient5295" id="linearGradient5305" x1="80" y1="100" x2="106.00685" y2="100" gradientUnits="userSpaceOnUse" gradientTransform="matrix(0.62011718,0,0,0.62011718,13.229164,7.9375001)"/>
    <linearGradient inkscape:collect="always" xlink:href="#linearGradient5295" id="linearGradient5307" x1="68" y1="109" x2="128.00685" y2="109" gradientUnits="userSpaceOnUse" gradientTransform="matrix(0.62011718,0,0,0.62011718,13.229164,7.9375001)"/>
    <linearGradient inkscape:collect="always" xlink:href="#linearGradient5295" id="linearGradient5309" x1="82" y1="42" x2="125.9808" y2="42" gradientUnits="userSpaceOnUse" gradientTransform="matrix(0.62011718,0,0,0.62011718,13.229164,7.9375001)"/>
    <linearGradient inkscape:collect="always" xlink:href="#linearGradient5295" id="linearGradient5311" x1="2" y1="41.996574" x2="39" y2="41.996574" gradientUnits="userSpaceOnUse" gradientTransform="matrix(0.62011718,0,0,0.62011718,13.229164,7.9375001)"/>
    <linearGradient inkscape:collect="always" xlink:href="#linearGradient5295" id="linearGradient5313" x1="21.993147" y1="24" x2="48" y2="24" gradientUnits="userSpaceOnUse" gradientTransform="matrix(0.62011718,0,0,0.62011718,13.229164,7.9375001)"/>
    <linearGradient inkscape:collect="always" xlink:href="#linearGradient5295" id="linearGradient5315" x1="-0.0068528657" y1="16.000002" x2="60" y2="16.000002" gradientUnits="userSpaceOnUse" gradientTransform="matrix(0.62011718,0,0,0.62011718,13.229164,7.9375001)"/>
    <linearGradient inkscape:collect="always" xlink:href="#linearGradient5295" id="linearGradient5317" x1="80" y1="24" x2="106.00685" y2="24" gradientUnits="userSpaceOnUse" gradientTransform="matrix(0.62011718,0,0,0.62011718,13.229164,7.9375001)"/>
    <linearGradient inkscape:collect="always" xlink:href="#linearGradient5295" id="linearGradient5319" x1="68" y1="16" x2="128.00685" y2="16" gradientUnits="userSpaceOnUse" gradientTransform="matrix(0.62011718,0,0,0.62011718,13.229164,7.9375001)"/>
    <linearGradient inkscape:collect="always" xlink:href="#linearGradient5295" id="linearGradient5321" x1="72" y1="42" x2="98" y2="42" gradientUnits="userSpaceOnUse" gradientTransform="matrix(0.62011718,0,0,0.62011718,13.229164,7.9375001)"/>
    <linearGradient inkscape:collect="always" xlink:href="#linearGradient5295" id="linearGradient5323" x1="30" y1="51.000156" x2="75.986275" y2="51.000156" gradientUnits="userSpaceOnUse" gradientTransform="matrix(0.62011718,0,0,0.62011718,13.229164,7.9375001)"/>
    <linearGradient inkscape:collect="always" xlink:href="#linearGradient5295" id="linearGradient5325" x1="22" y1="68.997215" x2="89" y2="68.997215" gradientUnits="userSpaceOnUse" gradientTransform="matrix(0.62011718,0,0,0.62011718,13.229164,7.9375001)"/>
  </defs>
  <sodipodi:namedview id="base" pagecolor="#ffffff" bordercolor="#666666" borderopacity="1.0" inkscape:pageopacity="0.0" inkscape:pageshadow="2" inkscape:zoom="0.35" inkscape:cx="400" inkscape:cy="560" inkscape:document-units="mm" inkscape:current-layer="layer1" inkscape:document-rotation="0" showgrid="false" units="px" inkscape:window-width="1540" inkscape:window-height="1041" inkscape:window-x="182" inkscape:window-y="0" inkscape:window-maximized="0"/>
  <metadata id="metadata899">
    <rdf:RDF>
      <cc:Work rdf:about="">
        <dc:format>image/svg+xml</dc:format>
        <dc:type rdf:resource="http://purl.org/dc/dcmitype/StillImage"/>
        <dc:title/>
      </cc:Work>
    </rdf:RDF>
  </metadata>
  <g inkscape:label="Calque 1" inkscape:groupmode="layer" id="layer1">
    <path d="m 58.665151,59.946727 4.235399,-4.11758 h 4.278805 a 1.240235,1.240235 0 0 0 0,-2.48047 h -4.7811 a 1.2402344,1.2402344 0 0 0 -0.861963,0.35347 l -4.60127,4.46485 a 1.8107422,1.8107422 0 0 1 -2.437059,0.25424 1.2402344,1.2402344 0 0 1 -0.341066,-0.87436 1.947168,1.947168 0 0 1 0.620117,-1.36426 l 3.540871,-3.44165 a 1.24105,1.24105 0 1 0 -1.730129,-1.77974 l -1.240234,1.24024 v 0 l -3.96875,3.85713 c -0.731737,0.70693 -1.860352,0.82475 -2.437059,0.25425 a 1.2402344,1.2402344 0 0 1 -0.365871,-0.96119 1.9409668,1.9409668 0 0 1 0.620117,-1.36426 v 0 l 4.030763,-3.91914 a 1.241048,1.241048 0 0 0 -1.730126,-1.77973 l -6.02134,5.8167 c -0.731737,0.71313 -1.860352,0.82475 -2.437059,0.25424 a 1.2402344,1.2402344 0 0 1 -0.359669,-0.90536 1.947168,1.947168 0 0 1 0.620117,-1.36426 l 6.157765,-5.98413 a 1.2410493,1.2410493 0 0 0 -1.730127,-1.77974 l -8.756055,8.53281 c -0.731738,0.70693 -1.860352,0.82476 -2.437061,0.25425 a 1.2402344,1.2402344 0 0 1 -0.359668,-0.90537 1.9409668,1.9409668 0 0 1 0.620118,-1.36426 l 8.780858,-8.53281 a 1.2410493,1.2410493 0 0 0 -1.730127,-1.77974 l -8.774657,8.53902 a 4.6384766,4.6384766 0 0 0 -0.806152,1.03559 h -6.151563 a 1.240235,1.240235 0 0 0 0,2.48047 h 5.581055 a 3.6710937,3.6710937 0 0 0 1.097607,2.30684 3.8509279,3.8509279 0 0 0 2.709912,1.0604 4.5764648,4.5764648 0 0 0 2.964159,-1.12242 3.6214844,3.6214844 0 0 0 0.855763,1.30225 3.8509279,3.8509279 0 0 0 2.709913,1.0604 4.5268555,4.5268555 0 0 0 2.238621,-0.62012 3.640088,3.640088 0 0 0 0.905372,1.44488 3.8447266,3.8447266 0 0 0 2.709913,1.0604 4.5082518,4.5082518 0 0 0 1.922362,-0.44649 3.640088,3.640088 0 0 0 0.94878,1.5503 3.8509279,3.8509279 0 0 0 2.728516,1.0852 4.5950682,4.5950682 0 0 0 3.181202,-1.32085 z" id="path52" style="opacity:1;mix-blend-mode:normal;fill:url(#linearGradient5325);fill-opacity:1;stroke-width:0.620117"/>
    <path d="m 31.832679,33.982422 a 1.2402344,1.2402344 0 0 0 1.240235,1.240234 h 18.603514 l 5.488038,5.146971 c 0.799951,0.75034 0.979786,1.95957 0.396875,2.6417 a 2.4432617,2.4432617 0 0 1 -1.612305,0.89297 1.0045898,1.0045898 0 0 1 -0.79375,-0.28525 l -4.446241,-3.6649 a 1.2402344,1.2402344 0 1 0 -1.575096,1.91617 l 4.34082,3.58427 a 3.4664552,3.4664552 0 0 0 2.399853,0.93018 h 0.21704 a 4.8865234,4.8865234 0 0 0 3.336232,-1.75493 c 1.43247,-1.68672 1.172022,-4.40903 -0.620117,-6.058548 L 52.960072,33.083252 A 1.2402344,1.2402344 0 0 0 52.141518,32.742187 H 33.072914 a 1.2402344,1.2402344 0 0 0 -1.240235,1.240235 z" id="path54" style="opacity:1;mix-blend-mode:normal;fill:url(#linearGradient5323);fill-opacity:1;stroke-width:0.620117"/>
    <path d="m 57.8776,33.982422 a 1.2402344,1.2402344 0 0 0 1.240234,1.240234 h 13.642581 a 1.2402345,1.2402345 0 0 0 0,-2.480469 H 59.117834 A 1.2402344,1.2402344 0 0 0 57.8776,33.982422 Z" id="path56" style="opacity:1;mix-blend-mode:normal;fill:url(#linearGradient5321);fill-opacity:1;stroke-width:0.620117"/>
    <path d="M 56.637365,27.78125 A 1.2402344,1.2402344 0 0 0 57.8776,26.541016 V 12.898438 h 27.502195 a 3.7207031,3.7207031 0 1 0 0,-2.480469 h -28.74243 a 1.2402344,1.2402344 0 0 0 -1.240234,1.240234 v 14.882813 a 1.2402344,1.2402344 0 0 0 1.240234,1.240234 z" id="path58" style="opacity:1;mix-blend-mode:normal;fill:url(#linearGradient5319);fill-opacity:1;stroke-width:0.620117"/>
    <path d="m 65.319006,29.021484 v -8.68164 h 6.418219 a 3.7207031,3.7207031 0 1 0 0,-2.480469 h -7.658453 a 1.2402344,1.2402344 0 0 0 -1.240235,1.240234 v 9.921875 a 1.2402345,1.2402345 0 0 0 2.480469,0 z" id="path60" style="opacity:1;mix-blend-mode:normal;fill:url(#linearGradient5317);fill-opacity:1;stroke-width:0.620117"/>
    <path d="m 16.949867,15.378906 a 3.7207031,3.7207031 0 0 0 3.503662,-2.480468 h 27.502196 v 13.642578 a 1.2402344,1.2402344 0 0 0 2.480468,0 V 11.658203 a 1.2402344,1.2402344 0 0 0 -1.240234,-1.240234 h -28.74243 a 3.7207031,3.7207031 0 1 0 -3.503662,4.960937 z" id="path62" style="opacity:1;mix-blend-mode:normal;fill:url(#linearGradient5315);fill-opacity:1;stroke-width:0.620117"/>
    <path d="m 41.754553,30.261719 a 1.2402344,1.2402344 0 0 0 1.240234,-1.240235 v -9.921875 a 1.2402344,1.2402344 0 0 0 -1.240234,-1.240234 h -7.658446 a 3.7207031,3.7207031 0 1 0 0,2.480469 h 6.418211 v 8.68164 a 1.2402344,1.2402344 0 0 0 1.240235,1.240235 z" id="path64" style="opacity:1;mix-blend-mode:normal;fill:url(#linearGradient5313);fill-opacity:1;stroke-width:0.620117"/>
    <path d="m 37.413734,42.664067 a 1.2402344,1.2402344 0 0 0 -1.240235,-1.24024 H 19.430336 V 31.284912 a 3.7207031,3.7207031 0 1 0 -2.480469,0 v 11.379155 a 1.2402344,1.2402344 0 0 0 1.240234,1.24023 h 17.983398 a 1.2402344,1.2402344 0 0 0 1.240235,-1.24023 z" id="path66" style="opacity:1;mix-blend-mode:normal;fill:url(#linearGradient5311);fill-opacity:1;stroke-width:0.620117"/>
    <path d="m 87.643225,24.060547 a 3.7207031,3.7207031 0 0 0 -1.24023,7.224365 V 41.423827 H 65.319006 a 1.240235,1.240235 0 0 0 0,2.48047 h 22.324219 a 1.2402344,1.2402344 0 0 0 1.24023,-1.24023 V 31.284912 a 3.7207031,3.7207031 0 0 0 -1.24023,-7.224365 z" id="path68" style="opacity:1;mix-blend-mode:normal;fill:url(#linearGradient5309);fill-opacity:1;stroke-width:0.620117"/>
    <path d="m 88.883455,79.871097 a 3.7207031,3.7207031 0 0 0 -3.50366,2.48047 H 57.8776 v -17.36329 a 1.2402345,1.2402345 0 0 0 -2.480469,0 v 18.60352 a 1.2402344,1.2402344 0 0 0 1.240234,1.24023 h 28.74243 a 3.7207031,3.7207031 0 1 0 3.50366,-4.96093 z" id="path70" style="opacity:1;mix-blend-mode:normal;fill:url(#linearGradient5307);fill-opacity:1;stroke-width:0.620117"/>
    <path d="m 64.078772,60.027347 a 1.2402344,1.2402344 0 0 0 -1.240235,1.24023 v 14.88281 a 1.2402344,1.2402344 0 0 0 1.240235,1.24024 h 7.658453 a 3.7207031,3.7207031 0 1 0 0,-2.48047 h -6.418219 v -13.64258 a 1.2402344,1.2402344 0 0 0 -1.240234,-1.24023 z" id="path72" style="opacity:1;mix-blend-mode:normal;fill:url(#linearGradient5305);fill-opacity:1;stroke-width:0.620117"/>
    <path d="m 49.195959,63.748047 a 1.2402344,1.2402344 0 0 0 -1.240234,1.24023 v 17.36329 H 20.453529 a 3.7207031,3.7207031 0 1 0 0,2.48046 h 28.74243 a 1.2402344,1.2402344 0 0 0 1.240234,-1.24023 v -18.60352 a 1.2402344,1.2402344 0 0 0 -1.240234,-1.24023 z" id="path74" style="opacity:1;mix-blend-mode:normal;fill:url(#linearGradient5303);fill-opacity:1;stroke-width:0.620117"/>
    <path d="m 34.096107,77.390627 h 7.658446 a 1.2402344,1.2402344 0 0 0 1.240234,-1.24024 v -14.88281 a 1.2402345,1.2402345 0 0 0 -2.480469,0 v 13.64258 h -6.418211 a 3.7207031,3.7207031 0 1 0 0,2.48047 z" id="path76" style="opacity:1;mix-blend-mode:normal;fill:url(#linearGradient5301);fill-opacity:1;stroke-width:0.620117"/>
    <path d="m 23.151039,52.585937 a 1.240235,1.240235 0 0 0 0,-2.48047 h -4.960938 a 1.2402344,1.2402344 0 0 0 -1.240234,1.24024 v 12.61938 a 3.7207031,3.7207031 0 1 0 2.480469,0 v -11.37915 z" id="path78" style="opacity:1;mix-blend-mode:normal;fill:url(#linearGradient5299);fill-opacity:1;stroke-width:0.620117"/>
    <path d="m 83.922525,67.468747 a 3.7207031,3.7207031 0 1 0 4.96093,-3.50366 v -12.61938 a 1.2402344,1.2402344 0 0 0 -1.24023,-1.24024 h -9.92187 a 1.2402344,1.2402344 0 0 0 -0.88677,0.37207 l -2.73472,2.78433 h -1.95957 a 1.240235,1.240235 0 0 0 0,2.48047 h 2.48047 a 1.2402344,1.2402344 0 0 0 0.88677,-0.37207 l 2.73471,-2.78433 h 8.16075 v 11.37915 a 3.7207031,3.7207031 0 0 0 -2.48047,3.50366 z" id="path80" style="opacity:1;mix-blend-mode:normal;fill:url(#linearGradient5297);fill-opacity:1;stroke-width:0.620117"/>
    <path d="m 58.665151,59.946727 4.235399,-4.11758 h 4.278805 a 1.240235,1.240235 0 0 0 0,-2.48047 h -4.7811 a 1.2402344,1.2402344 0 0 0 -0.861963,0.35347 l -4.60127,4.46485 a 1.8107422,1.8107422 0 0 1 -2.437059,0.25424 1.2402344,1.2402344 0 0 1 -0.341066,-0.87436 1.947168,1.947168 0 0 1 0.620117,-1.36426 l 3.540871,-3.44165 a 1.24105,1.24105 0 1 0 -1.730129,-1.77974 l -1.240234,1.24024 v 0 l -3.96875,3.85713 c -0.731737,0.70693 -1.860352,0.82475 -2.437059,0.25425 a 1.2402344,1.2402344 0 0 1 -0.365871,-0.96119 1.9409668,1.9409668 0 0 1 0.620117,-1.36426 v 0 l 4.030763,-3.91914 a 1.241048,1.241048 0 0 0 -1.730126,-1.77973 l -6.02134,5.8167 c -0.731737,0.71313 -1.860352,0.82475 -2.437059,0.25424 a 1.2402344,1.2402344 0 0 1 -0.359669,-0.90536 1.947168,1.947168 0 0 1 0.620117,-1.36426 l 6.157765,-5.98413 a 1.2410493,1.2410493 0 0 0 -1.730127,-1.77974 l -8.756054,8.53281 c -0.731738,0.70693 -1.860351,0.82476 -2.437061,0.25425 a 1.2402344,1.2402344 0 0 1 -0.359667,-0.90537 1.9409668,1.9409668 0 0 1 0.620117,-1.36426 l 8.780857,-8.53281 a 1.2410493,1.2410493 0 0 0 -1.730127,-1.77974 l -8.774656,8.53902 a 4.6384766,4.6384766 0 0 0 -0.806152,1.03559 h -6.151563 a 1.240235,1.240235 0 0 0 0,2.48047 h 5.581055 a 3.6710937,3.6710937 0 0 0 1.097607,2.30684 3.8509279,3.8509279 0 0 0 2.709912,1.0604 4.5764648,4.5764648 0 0 0 2.964158,-1.12242 3.6214844,3.6214844 0 0 0 0.855763,1.30225 3.8509279,3.8509279 0 0 0 2.709913,1.0604 4.5268555,4.5268555 0 0 0 2.238621,-0.62012 3.640088,3.640088 0 0 0 0.905372,1.44488 3.8447266,3.8447266 0 0 0 2.709913,1.0604 4.5082518,4.5082518 0 0 0 1.922362,-0.44649 3.640088,3.640088 0 0 0 0.94878,1.5503 3.8509279,3.8509279 0 0 0 2.728516,1.0852 4.5950682,4.5950682 0 0 0 3.181202,-1.32085 z" id="path52-3" style="opacity:1;mix-blend-mode:normal;fill:url(#radialGradient5625);fill-opacity:1;stroke-width:0.620117"/>
    <path d="m 31.83268,33.982422 a 1.2402344,1.2402344 0 0 0 1.240235,1.240234 h 18.603513 l 5.488038,5.146971 c 0.799951,0.75034 0.979786,1.95957 0.396875,2.6417 a 2.4432617,2.4432617 0 0 1 -1.612305,0.89297 1.0045898,1.0045898 0 0 1 -0.79375,-0.28525 l -4.446241,-3.6649 a 1.2402344,1.2402344 0 1 0 -1.575096,1.91617 l 4.34082,3.58427 a 3.4664552,3.4664552 0 0 0 2.399853,0.93018 h 0.21704 a 4.8865234,4.8865234 0 0 0 3.336232,-1.75493 c 1.43247,-1.68672 1.172022,-4.40903 -0.620117,-6.058548 L 52.960072,33.083252 A 1.2402344,1.2402344 0 0 0 52.141518,32.742187 H 33.072915 a 1.2402344,1.2402344 0 0 0 -1.240235,1.240235 z" id="path54-7" style="opacity:1;mix-blend-mode:normal;fill:url(#radialGradient5623);fill-opacity:1;stroke-width:0.620117"/>
    <path d="m 57.8776,33.982422 a 1.2402344,1.2402344 0 0 0 1.240234,1.240234 h 13.642581 a 1.2402345,1.2402345 0 0 0 0,-2.480469 H 59.117834 A 1.2402344,1.2402344 0 0 0 57.8776,33.982422 Z" id="path56-0" style="opacity:1;mix-blend-mode:normal;fill:url(#radialGradient5621);fill-opacity:1;stroke-width:0.620117"/>
    <path d="M 56.637365,27.78125 A 1.2402344,1.2402344 0 0 0 57.8776,26.541016 V 12.898438 h 27.502205 a 3.7207031,3.7207031 0 1 0 0,-2.480469 h -28.74244 a 1.2402344,1.2402344 0 0 0 -1.240234,1.240234 v 14.882813 a 1.2402344,1.2402344 0 0 0 1.240234,1.240234 z" id="path58-2" style="opacity:1;mix-blend-mode:normal;fill:url(#radialGradient5619);fill-opacity:1;stroke-width:0.620117"/>
    <path d="m 65.319006,29.021484 v -8.68164 h 6.418219 a 3.7207031,3.7207031 0 1 0 0,-2.480469 h -7.658453 a 1.2402344,1.2402344 0 0 0 -1.240235,1.240234 v 9.921875 a 1.2402345,1.2402345 0 0 0 2.480469,0 z" id="path60-1" style="opacity:1;mix-blend-mode:normal;fill:url(#radialGradient5617);fill-opacity:1;stroke-width:0.620117"/>
    <path d="m 16.949868,15.378906 a 3.7207031,3.7207031 0 0 0 3.503662,-2.480468 h 27.502195 v 13.642578 a 1.2402344,1.2402344 0 0 0 2.480468,0 V 11.658203 A 1.2402344,1.2402344 0 0 0 49.195959,10.417969 H 20.45353 a 3.7207031,3.7207031 0 1 0 -3.503662,4.960937 z" id="path62-3" style="opacity:1;mix-blend-mode:normal;fill:url(#radialGradient5615);fill-opacity:1;stroke-width:0.620117"/>
    <path d="m 41.754553,30.261719 a 1.2402344,1.2402344 0 0 0 1.240234,-1.240235 v -9.921875 a 1.2402344,1.2402344 0 0 0 -1.240234,-1.240234 h -7.658445 a 3.7207031,3.7207031 0 1 0 0,2.480469 h 6.41821 v 8.68164 a 1.2402344,1.2402344 0 0 0 1.240235,1.240235 z" id="path64-9" style="opacity:1;mix-blend-mode:normal;fill:url(#radialGradient5613);fill-opacity:1;stroke-width:0.620117"/>
    <path d="m 37.413735,42.664067 a 1.2402344,1.2402344 0 0 0 -1.240234,-1.24024 H 19.430337 V 31.284912 a 3.7207031,3.7207031 0 1 0 -2.480469,0 v 11.379155 a 1.2402344,1.2402344 0 0 0 1.240235,1.24023 h 17.983398 a 1.2402344,1.2402344 0 0 0 1.240234,-1.24023 z" id="path66-9" style="opacity:1;mix-blend-mode:normal;fill:url(#radialGradient5611);fill-opacity:1;stroke-width:0.620117"/>
    <path d="m 87.643225,24.060547 a 3.7207031,3.7207031 0 0 0 -1.24023,7.224365 V 41.423827 H 65.319006 a 1.240235,1.240235 0 0 0 0,2.48047 h 22.324219 a 1.2402344,1.2402344 0 0 0 1.24023,-1.24023 V 31.284912 a 3.7207031,3.7207031 0 0 0 -1.24023,-7.224365 z" id="path68-0" style="opacity:1;mix-blend-mode:normal;fill:url(#radialGradient5609);fill-opacity:1;stroke-width:0.620117"/>
    <path d="m 88.883455,79.871097 a 3.7207031,3.7207031 0 0 0 -3.50365,2.48047 H 57.8776 v -17.36329 a 1.2402345,1.2402345 0 0 0 -2.480469,0 v 18.60352 a 1.2402344,1.2402344 0 0 0 1.240234,1.24023 h 28.74244 a 3.7207031,3.7207031 0 1 0 3.50365,-4.96093 z" id="path70-2" style="opacity:1;mix-blend-mode:normal;fill:url(#radialGradient5607);fill-opacity:1;stroke-width:0.620117"/>
    <path d="m 64.078772,60.027347 a 1.2402344,1.2402344 0 0 0 -1.240235,1.24023 v 14.88281 a 1.2402344,1.2402344 0 0 0 1.240235,1.24024 h 7.658453 a 3.7207031,3.7207031 0 1 0 0,-2.48047 h -6.418219 v -13.64258 a 1.2402344,1.2402344 0 0 0 -1.240234,-1.24023 z" id="path72-2" style="opacity:1;mix-blend-mode:normal;fill:url(#radialGradient5605);fill-opacity:1;stroke-width:0.620117"/>
    <path d="m 49.195959,63.748047 a 1.2402344,1.2402344 0 0 0 -1.240234,1.24023 v 17.36329 H 20.45353 a 3.7207031,3.7207031 0 1 0 0,2.48046 h 28.742429 a 1.2402344,1.2402344 0 0 0 1.240234,-1.24023 v -18.60352 a 1.2402344,1.2402344 0 0 0 -1.240234,-1.24023 z" id="path74-5" style="opacity:1;mix-blend-mode:normal;fill:url(#radialGradient5603);fill-opacity:1;stroke-width:0.620117"/>
    <path d="m 34.096108,77.390627 h 7.658445 a 1.2402344,1.2402344 0 0 0 1.240234,-1.24024 v -14.88281 a 1.2402345,1.2402345 0 0 0 -2.480469,0 v 13.64258 h -6.41821 a 3.7207031,3.7207031 0 1 0 0,2.48047 z" id="path76-7" style="opacity:1;mix-blend-mode:normal;fill:url(#radialGradient5601);fill-opacity:1;stroke-width:0.620117"/>
    <path d="m 23.15104,52.585937 a 1.240235,1.240235 0 0 0 0,-2.48047 h -4.960937 a 1.2402344,1.2402344 0 0 0 -1.240235,1.24024 v 12.61938 a 3.7207031,3.7207031 0 1 0 2.480469,0 v -11.37915 z" id="path78-8" style="opacity:1;mix-blend-mode:normal;fill:url(#radialGradient5599);fill-opacity:1;stroke-width:0.620117"/>
    <path d="m 83.922525,67.468747 a 3.7207031,3.7207031 0 1 0 4.96093,-3.50366 v -12.61938 a 1.2402344,1.2402344 0 0 0 -1.24023,-1.24024 h -9.92187 a 1.2402344,1.2402344 0 0 0 -0.88677,0.37207 l -2.73472,2.78433 h -1.95957 a 1.240235,1.240235 0 0 0 0,2.48047 h 2.48047 a 1.2402344,1.2402344 0 0 0 0.88677,-0.37207 l 2.73471,-2.78433 h 8.16075 v 11.37915 a 3.7207031,3.7207031 0 0 0 -2.48047,3.50366 z" id="path80-8" style="opacity:1;mix-blend-mode:normal;fill:url(#radialGradient5597);fill-opacity:1;stroke-width:0.620117"/>
    <g aria-label="THE NuuM" transform="translate(0,3.7797619)" id="text1927" style="font-style:normal;font-variant:normal;font-weight:normal;font-stretch:normal;font-size:38.8056px;line-height:1.25;font-family:RoundorNonCommercial;-inkscape-font-specification:RoundorNonCommercial;white-space:pre;shape-inside:url(#rect1929);fill:#3185be;fill-opacity:1;stroke:none">
      <path d="m 115.22664,35.926711 h 1.24178 c 0.54328,0 0.97014,-0.426862 0.97014,-0.97014 V 13.962742 h 7.06262 c 0.54328,0 0.97014,-0.426862 0.97014,-0.97014 V 12.21649 c 0,-0.543278 -0.42686,-0.97014 -0.97014,-0.97014 h -17.26849 c -0.54328,0 -0.97014,0.426862 -0.97014,0.97014 v 0.776112 c 0,0.543278 0.42686,0.97014 0.97014,0.97014 h 6.985 v 20.993829 c 0,0.543278 0.46567,0.97014 1.00895,0.97014 z" style="font-style:normal;font-variant:normal;font-weight:normal;font-stretch:normal;font-size:38.8056px;font-family:RoundorNonCommercial;-inkscape-font-specification:RoundorNonCommercial;fill:#3185be;fill-opacity:1" id="path909"/>
      <path d="m 148.32775,35.926711 h 1.31939 c 0.50447,0 0.93133,-0.426862 0.93133,-0.931334 V 12.177684 c 0,-0.504472 -0.42686,-0.931334 -0.93133,-0.931334 h -1.31939 c -0.50448,0 -0.97014,0.426862 -0.97014,0.931334 V 23.159669 H 132.22342 V 12.177684 c 0,-0.504472 -0.42686,-0.931334 -0.93133,-0.931334 h -1.31939 c -0.50447,0 -0.93134,0.426862 -0.93134,0.931334 v 22.817693 c 0,0.504472 0.42687,0.931334 0.93134,0.931334 h 1.31939 c 0.50447,0 0.93133,-0.426862 0.93133,-0.931334 v -9.080511 h 15.13419 v 9.080511 c 0,0.504472 0.46566,0.931334 0.97014,0.931334 z" style="font-style:normal;font-variant:normal;font-weight:normal;font-stretch:normal;font-size:38.8056px;font-family:RoundorNonCommercial;-inkscape-font-specification:RoundorNonCommercial;fill:#3185be;fill-opacity:1" id="path911"/>
      <path d="m 169.67081,35.926711 c 0.54328,0 0.97014,-0.426862 0.97014,-0.97014 v -0.737306 c 0,-0.582084 -0.42686,-1.008946 -0.97014,-1.008946 h -12.72823 v -7.567092 h 8.73126 c 0.54327,0 1.00894,-0.426861 1.00894,-0.97014 v -0.776112 c 0,-0.543278 -0.46567,-0.97014 -1.00894,-0.97014 h -8.73126 v -8.964093 h 12.72823 c 0.54328,0 0.97014,-0.426862 0.97014,-0.97014 V 12.21649 c 0,-0.543278 -0.42686,-0.97014 -0.97014,-0.97014 h -14.97896 c -0.54328,0 -0.97014,0.426862 -0.97014,0.97014 v 22.740081 c 0,0.543278 0.42686,0.97014 0.97014,0.97014 z" style="font-style:normal;font-variant:normal;font-weight:normal;font-stretch:normal;font-size:38.8056px;font-family:RoundorNonCommercial;-inkscape-font-specification:RoundorNonCommercial;fill:#3185be;fill-opacity:1" id="path913"/>
      <path d="m 204.09128,35.926711 h 1.62983 c 0.54328,0 0.97014,-0.426862 0.97014,-0.97014 V 12.21649 c 0,-0.543278 -0.42686,-0.97014 -0.97014,-0.97014 h -1.24178 c -0.54328,0 -1.00894,0.426862 -1.00894,0.97014 V 30.532733 L 188.87948,11.634406 c -0.19403,-0.271639 -0.46567,-0.388056 -0.77611,-0.388056 h -1.82386 c -0.54328,0 -0.97014,0.426862 -0.97014,0.97014 v 22.740081 c 0,0.543278 0.42686,0.97014 0.97014,0.97014 h 1.24177 c 0.54328,0 0.97014,-0.426862 0.97014,-0.97014 V 16.252272 l 14.82374,19.286383 c 0.19403,0.271639 0.46567,0.388056 0.77612,0.388056 z" style="font-style:normal;font-variant:normal;font-weight:normal;font-stretch:normal;font-size:38.8056px;font-family:RoundorNonCommercial;-inkscape-font-specification:RoundorNonCommercial;fill:#3185be;fill-opacity:1" id="path915"/>
      <path d="m 219.38068,36.353573 c 7.02381,0 9.62379,-3.919366 9.62379,-10.050651 V 12.21649 c 0,-0.543278 -0.42686,-1.008946 -0.97014,-1.008946 h -1.28058 c -0.54328,0 -1.00895,0.465668 -1.00895,1.008946 v 14.047627 c 0,4.501449 -1.59103,7.373064 -6.36412,7.373064 -4.77309,0 -6.32531,-2.871615 -6.32531,-7.373064 V 12.21649 c 0,-0.543278 -0.42686,-1.008946 -0.97014,-1.008946 h -1.28059 c -0.54327,0 -0.97014,0.465668 -0.97014,1.008946 v 14.125238 c 0,6.053674 2.56117,10.011845 9.54618,10.011845 z" style="font-style:normal;font-variant:normal;font-weight:normal;font-stretch:normal;font-size:38.8056px;font-family:RoundorNonCommercial;-inkscape-font-specification:RoundorNonCommercial;fill:#3185be;fill-opacity:1" id="path917"/>
      <path d="m 241.69385,36.353573 c 7.02382,0 9.62379,-3.919366 9.62379,-10.050651 V 12.21649 c 0,-0.543278 -0.42686,-1.008946 -0.97014,-1.008946 h -1.28058 c -0.54328,0 -1.00895,0.465668 -1.00895,1.008946 v 14.047627 c 0,4.501449 -1.59103,7.373064 -6.36412,7.373064 -4.77309,0 -6.32531,-2.871615 -6.32531,-7.373064 V 12.21649 c 0,-0.543278 -0.42686,-1.008946 -0.97014,-1.008946 h -1.28058 c -0.54328,0 -0.97014,0.465668 -0.97014,1.008946 v 14.125238 c 0,6.053674 2.56116,10.011845 9.54617,10.011845 z" style="font-style:normal;font-variant:normal;font-weight:normal;font-stretch:normal;font-size:38.8056px;font-family:RoundorNonCommercial;-inkscape-font-specification:RoundorNonCommercial;fill:#3185be;fill-opacity:1" id="path919"/>
      <path d="m 277.55019,35.926711 h 1.24178 c 0.54327,0 0.97014,-0.426862 0.97014,-0.97014 V 12.21649 c 0,-0.543278 -0.42687,-0.97014 -0.97014,-0.97014 h -3.02684 c -0.38806,0 -0.6985,0.194028 -0.89253,0.504473 l -7.76112,14.629711 -7.76112,-14.629711 c -0.19403,-0.310445 -0.50447,-0.504473 -0.89253,-0.504473 h -3.02684 c -0.54327,0 -0.97014,0.426862 -0.97014,0.97014 v 22.740081 c 0,0.543278 0.42687,0.97014 0.97014,0.97014 h 1.24178 c 0.54328,0 0.97014,-0.426862 0.97014,-0.97014 V 15.165715 l 8.53724,16.298352 c 0.15522,0.388056 0.54327,0.62089 0.93133,0.62089 0.42686,0 0.81492,-0.232834 0.97014,-0.62089 l 8.45962,-16.298352 v 19.790856 c 0,0.543278 0.46567,0.97014 1.00895,0.97014 z" style="font-style:normal;font-variant:normal;font-weight:normal;font-stretch:normal;font-size:38.8056px;font-family:RoundorNonCommercial;-inkscape-font-specification:RoundorNonCommercial;fill:#3185be;fill-opacity:1" id="path921"/>
    </g>
    <g aria-label="Factory" transform="translate(3.0238096,-16.630952)" id="text1947" style="font-style:normal;font-variant:normal;font-weight:normal;font-stretch:normal;font-size:42.3333px;line-height:1.25;font-family:RoundorNonCommercial;-inkscape-font-specification:RoundorNonCommercial;white-space:pre;shape-inside:url(#rect1949);fill:#3185be;fill-opacity:1;stroke:none">
      <path d="m 110.09737,96.302262 h 1.35466 c 0.59267,0 1.05834,-0.465666 1.05834,-1.058332 V 85.083938 h 9.60966 c 0.59266,0 1.05833,-0.465667 1.05833,-1.100666 v -0.804333 c 0,-0.592666 -0.46567,-1.100666 -1.05833,-1.100666 h -9.60966 v -9.736659 h 13.92765 c 0.59267,0 1.05833,-0.465667 1.05833,-1.058333 v -0.846666 c 0,-0.592666 -0.46566,-1.058332 -1.05833,-1.058332 h -16.34065 c -0.59267,0 -1.05833,0.465666 -1.05833,1.058332 V 95.24393 c 0,0.592666 0.46566,1.058332 1.05833,1.058332 z" style="font-style:normal;font-variant:normal;font-weight:normal;font-stretch:normal;font-size:42.3333px;font-family:RoundorNonCommercial;-inkscape-font-specification:RoundorNonCommercial;fill:#3185be;fill-opacity:1" id="path924"/>
      <path d="M 150.90656,94.820597 140.45024,70.013282 c -0.16934,-0.381 -0.55034,-0.634999 -0.97367,-0.634999 h -2.96333 c -0.42333,0 -0.80433,0.253999 -0.97367,0.634999 l -10.45632,24.807315 c -0.33867,0.719666 0.21167,1.481665 0.97367,1.481665 h 1.69333 c 0.42333,0 0.80433,-0.253999 0.97366,-0.634999 l 2.24367,-5.376329 h 8.21266 c 0.59266,0 1.10066,-0.465667 1.10066,-1.058333 v -0.804333 c 0,-0.592666 -0.508,-1.058332 -1.10066,-1.058332 h -7.15433 l 5.969,-14.562656 9.22866,22.859983 c 0.16933,0.381 0.55033,0.634999 1.016,0.634999 h 1.65099 c 0.762,0 1.31234,-0.761999 1.016,-1.481665 z" style="font-style:normal;font-variant:normal;font-weight:normal;font-stretch:normal;font-size:42.3333px;font-family:RoundorNonCommercial;-inkscape-font-specification:RoundorNonCommercial;fill:#3185be;fill-opacity:1" id="path926"/>
      <path d="m 165.46913,96.767929 c 4.40267,0 7.57767,-1.735666 9.86366,-4.275664 0.508,-0.550333 0.33867,-1.354665 -0.29633,-1.693332 l -0.97367,-0.507999 c -0.42333,-0.254 -0.97366,-0.127 -1.31233,0.253999 -1.69333,1.904999 -4.36033,3.259665 -7.28133,3.259665 -6.18066,0 -10.87965,-4.571997 -10.87965,-10.964325 0,-6.476996 4.69899,-10.964326 10.87965,-10.964326 2.921,0 5.588,1.312333 7.28133,3.259665 0.33867,0.380999 0.889,0.465666 1.31233,0.253999 l 0.97367,-0.550332 c 0.635,-0.338667 0.762,-1.143 0.29633,-1.650999 -2.24366,-2.539998 -5.46099,-4.275664 -9.86366,-4.275664 -8.12799,0 -14.47798,5.630329 -14.47798,13.927657 0,8.297327 6.34999,13.927656 14.47798,13.927656 z" style="font-style:normal;font-variant:normal;font-weight:normal;font-stretch:normal;font-size:42.3333px;font-family:RoundorNonCommercial;-inkscape-font-specification:RoundorNonCommercial;fill:#3185be;fill-opacity:1" id="path928"/>
      <path d="m 189.26037,96.302262 h 1.35467 c 0.59267,0 1.05833,-0.465666 1.05833,-1.058332 V 72.341614 h 7.70466 c 0.59267,0 1.05833,-0.465667 1.05833,-1.058333 v -0.846666 c 0,-0.592666 -0.46566,-1.058332 -1.05833,-1.058332 h -18.83832 c -0.59266,0 -1.05833,0.465666 -1.05833,1.058332 v 0.846666 c 0,0.592666 0.46567,1.058333 1.05833,1.058333 h 7.62 V 95.24393 c 0,0.592666 0.508,1.058332 1.10066,1.058332 z" style="font-style:normal;font-variant:normal;font-weight:normal;font-stretch:normal;font-size:42.3333px;font-family:RoundorNonCommercial;-inkscape-font-specification:RoundorNonCommercial;fill:#3185be;fill-opacity:1" id="path930"/>
      <path d="m 214.9142,96.767929 c 8.33966,0 14.05466,-5.968996 14.05466,-13.927656 0,-7.958661 -5.715,-13.927657 -14.05466,-13.927657 -8.33966,0 -13.96999,5.968996 -13.96999,13.927657 0,7.95866 5.63033,13.927656 13.96999,13.927656 z m 0,-2.963331 c -6.35,0 -10.37166,-4.698997 -10.37166,-10.964325 0,-6.307662 4.02166,-10.964326 10.37166,-10.964326 6.30766,0 10.41399,4.656664 10.41399,10.964326 0,6.265328 -4.10633,10.964325 -10.41399,10.964325 z" style="font-style:normal;font-variant:normal;font-weight:normal;font-stretch:normal;font-size:42.3333px;font-family:RoundorNonCommercial;-inkscape-font-specification:RoundorNonCommercial;fill:#3185be;fill-opacity:1" id="path932"/>
      <path d="m 249.20409,96.302262 h 1.31233 c 0.93134,0 1.43933,-1.058332 0.80434,-1.777998 l -6.096,-7.069662 c 3.85233,-0.338666 7.36599,-4.063997 7.36599,-8.889993 0,-4.995329 -3.72533,-9.186326 -8.88999,-9.186326 H 233.4561 c -0.59266,0 -1.05833,0.465666 -1.05833,1.058332 V 95.24393 c 0,0.592666 0.46567,1.058332 1.05833,1.058332 h 1.35467 c 0.59266,0 1.05833,-0.465666 1.05833,-1.058332 v -7.535328 h 5.67266 l 6.858,8.212661 c 0.21166,0.254 0.508,0.380999 0.80433,0.380999 z m -5.92666,-11.514658 h -7.40833 v -12.44599 h 7.40833 c 3.34433,0 5.67266,3.132664 5.67266,6.222995 0,3.005665 -2.32833,6.222995 -5.67266,6.222995 z" style="font-style:normal;font-variant:normal;font-weight:normal;font-stretch:normal;font-size:42.3333px;font-family:RoundorNonCommercial;-inkscape-font-specification:RoundorNonCommercial;fill:#3185be;fill-opacity:1" id="path934"/>
      <path d="m 266.05266,96.302262 h 1.35466 c 0.59267,0 1.10067,-0.465666 1.10067,-1.058332 v -8.212661 l 10.03299,-16.001988 c 0.46567,-0.719666 -0.0423,-1.650998 -0.889,-1.650998 h -1.22766 c -0.381,0 -0.762,0.169333 -0.93133,0.507999 l -8.763,14.139323 -8.76299,-14.139323 c -0.21167,-0.338666 -0.55033,-0.507999 -0.93133,-0.507999 H 255.808 c -0.84667,0 -1.35467,0.931332 -0.93133,1.650998 l 10.11766,16.001988 v 8.212661 c 0,0.592666 0.46566,1.058332 1.05833,1.058332 z" style="font-style:normal;font-variant:normal;font-weight:normal;font-stretch:normal;font-size:42.3333px;font-family:RoundorNonCommercial;-inkscape-font-specification:RoundorNonCommercial;fill:#3185be;fill-opacity:1" id="path936"/>
    </g>
  </g>
</svg>